<?xml version="1.0" encoding="UTF-8" standalone="no"?>
<svg
   width="1920"
   height="8.8051147"
   viewBox="0 0 1920 8.8051145"
   fill="none"
   version="1.1"
   id="svg1"
   xmlns="http://www.w3.org/2000/svg"
   xmlns:svg="http://www.w3.org/2000/svg">
  <defs
     id="defs1">
    <clipPath
       clipPathUnits="userSpaceOnUse"
       id="clipPath38">
      <rect
         style="fill:#cd2846;stroke-width:0.884839"
         id="rect38"
         width="2044.7332"
         height="142.5522"
         x="-40.092808"
         y="-2.2273786" />
    </clipPath>
    <clipPath
       clipPathUnits="userSpaceOnUse"
       id="clipPath367">
      <rect
         style="fill:#cd2846;fill-opacity:0.256998;stroke-width:1.00157"
         id="rect368"
         width="1991.276"
         height="57.354992"
         x="-16.426914"
         y="966.19489" />
    </clipPath>
  </defs>
  <g
     id="g37"
     clip-path="url(#clipPath38)"
     transform="translate(-0.27842228,-108.65429)">
    <path
       d="M 1919.1,8.49995 V 1.57064 c -8.61,5.17389 -10.71,4.71193 -21.52,3.14129 -1.2,-0.18478 -2.2,-0.27717 -3.3,0.27717 -0.6,0.36957 -1.3,0.27718 -2,0.18478 -0.7,-0.09239 -1.4,-0.18478 -2,0 -1.4,0.27718 -2.91,-0.64673 -4.31,0 l -0.3,-0.09239 c -0.6,-0.27717 -1.2,-0.27717 -1.8,-0.18478 -2.1,0.27718 -4.2,0.27718 -6.3,-0.46195 -1.6,-0.55435 -3.41,-0.27717 -5.01,0.36956 -1.2,0.46196 -2.4,1.10869 -3.9,0.46196 h -1.5 -1.3 c -1.9,-0.73913 -4.01,-0.73913 -6.01,-1.20108 -0.4,-0.0924 -0.9,-0.18479 -0.9,0.27717 0,0.64673 -0.5,0.73912 -1,0.92391 -1.2,0.46195 -2.5,0.55434 -3.8,0.36956 -1.7,-0.27717 -3.4,-0.55435 -5.21,-0.18478 l -1.4,-0.09239 c -1.7,-0.36957 -3.4,-0.09239 -5.1,0.27717 -2.3,0.64673 -4.7,0.92391 -6.41,2.49455 l -1.2,0.27717 c -1.8,-0.27717 -3.6,-0.36956 -5.3,0.09239 h -5 c -1.41,-0.46195 -2.71,-1.20108 -4.11,-1.84781 l -0.3,-0.46196 c 0,-0.73912 -0.5,-0.9239 -1.2,-0.46195 -0.5,0.27717 -0.9,0.46195 -1.5,0.27717 l -0.8,0.09239 c -1.3,0.83152 -2.9,0.73913 -4.4,1.0163 -2.41,0.36957 -4.81,-0.36956 -7.21,0.36956 -2,0.64674 -4.3,0.18479 -6.4,0.83152 -0.21,0.09239 -0.41,0.09239 -0.71,0.18478 h -16.51 c -0.5,-0.09239 -1.1,-0.18478 -1.7,-0.27717 l -1.2,-0.55434 c -1.2,-1.0163 -2.6,-0.73913 -3.9,-0.36957 -1,0.27717 -1.81,0.18479 -2.71,-0.18478 -1.6,-0.64673 -3.3,-1.0163 -5.1,-0.92391 -2.1,0.09239 -4.2,-0.27717 -6.2,-0.46195 -3.01,-0.27717 -6.11,-0.83152 -8.91,0.55435 l -0.7,0.55434 0.1,0.55434 -0.9,-0.18478 c -0.8,-0.46195 -1.6,-0.64673 -2.6,-0.64673 -2.81,0 -5.61,0.27717 -8.31,-0.73913 -0.6,-0.18478 -1.7,-0.46195 -2.1,-0.27717 -1.4,0.55434 -2.6,0.27717 -3.81,0 -1.3,-0.27717 -2.4,0 -3.6,0.64673 -1.4,0.73913 -3.2,0.92391 -4.9,0.64674 -1,-0.18478 -2.1,-0.64674 -2.9,-1.47825 -0.61,-0.64674 -1.81,-1.20108 -3.21,-1.0163 -1,0.09239 -2,0.18478 -2.9,-0.64674 -0.8,-0.73912 -1,-1.84781 -2.3,-2.30977 -0.9,-0.27717 -1.9,-0.461951 -2.7,-1.201078 0.2,1.385858 -1.9,0.739126 -2.01,1.755428 l -0.5,-0.09239 c -0.9,-0.64674 -1.9,-0.27718 -3.1,-0.46196 l 1.1,0.46196 0.8,0.55434 c 0,0.36956 -0.5,0.18478 -0.8,0.27717 l -0.8,0.27718 c -0.3,0.64673 -0.9,0.55434 -1.5,0.55434 l -1.4,0.18478 c -0.9,0.64674 -2.4,0 -3.2,0.83152 l -0.5,-0.09239 c -1.6,-0.46195 -3.11,-0.83152 -5.01,-0.46196 -1.9,0.36957 -4,0.83152 -6,0.18479 l -0.8,0.18478 -0.7,0.18478 c -0.9,-0.92391 -2.1,-1.0163 -3.41,-1.10869 l -0.2,-0.18478 -0.8,-0.36957 c -1.2,0.0924 -2.5,-0.36956 -3.5,0.55435 l -1.3,-0.18478 -1.3,-0.09239 0.8,0.55434 0.1,0.27717 c -1.1,0.27718 -1.8,-1.20108 -2.9,-0.27717 l 0.9,0.64674 0.7,0.46195 c -0.1,0.46196 -0.6,0.09239 -1,0.18478 h -1 l 0.4,0.73913 c -1.5,0.55434 -4.41,0.55434 -5.01,-0.27717 -0.7,-0.92391 -1.5,-0.55435 -2.4,-0.55435 -1.2,0 -2.4,0.46196 -3.6,0.27717 -1.7,-0.18478 -3.4,-0.09239 -4.9,-0.83151 l -1.11,-0.09239 c -4.2,0.36956 -8.3,-0.09239 -12.51,-0.27718 -1.1,-0.09239 -2.2,0 -3.3,-0.09239 -0.6,-0.09239 -1.8,-0.18478 -1.8,-0.09239 -0.7,1.29347 -2.1,0.64674 -3.2,0.73913 -2.5,0.09239 -5.11,-0.73913 -7.61,0.09239 l -1.1,-0.18478 -1,-0.18478 c -2.4,0.64673 -4.7,0.18478 -6.9,-0.27718 -0.71,-0.09239 -1.31,-0.09239 -2.01,-0.36956 -1.6,-0.83152 -3.4,-1.47825 -5.4,-1.57064 -2.5,-0.09239 -5.1,-0.09239 -7.61,-0.18478 -0.6,0 -1,0.55434 -1.7,0.18478 -1.1,-0.46196 -2.3,-0.36957 -3.5,-0.36957 -1.9,-0.09239 -3.7,0.36957 -5.6,0.18479 -1.81,-0.09239 -3.51,-0.64674 -5.31,-0.36957 l -0.7,-0.36956 c -0.1,-1.108689284744 -1.2,-0.369563 -1.7,-0.554345 -0.7,-0.277172 -0.6,0.369563 -0.8,0.646735 -1.3,-0.923907 -2.9,-0.646735 -4.41,-0.646735 -2.8,0.092391 -5.6,-0.092391 -8.3,0.461955 -1.9,0.36956 -4,0.46195 -6.01,0 l -1.4,0.09239 c -1,0.46195 -2.2,0.55434 -3.3,0.73913 -1.4,0.18478 -2.7,0.83151 -4.1,1.01629 -1.5,0.18479 -2.91,0.46196 -4.41,0.46196 -1.8,0.09239 -3.5,0.64673 -5.3,0.64673 -2.6,-0.09239 -5.3,-0.27717 -7.91,0.27718 -0.6,0.09239 -1.2,0 -1.7,-0.18478 -0.8,-0.36957 -1.7,-0.18479 -2.5,-0.0924 -1.3,0.0924 -2.5,0.36957 -3.8,0.36957 -3.21,0 -6.31,-1.0163 -9.51,-0.18478 h -0.3 c -2.7,0 -5.3,0 -8.01,0.27717 -2,0.27717 -4,0.46195 -5.9,1.10869 -0.9,0.27717 -2.3,-0.09239 -2.9,0.83151 h -0.5 c -2.21,0 -4.51,0.0924 -6.71,0 -1.3,0 -2.5,0.55435 -3.9,0.0924 l -1,0.09239 c -0.3,0.55434 -0.8,0.27717 -1.3,0.18478 -1.61,-0.27717 -3.31,-0.09239 -4.91,-0.36957 -0.7,-0.09239 -1.6,0.27718 -2.4,0.18479 -0.8,-0.09239 -2,0.09239 -2.4,-0.18479 -0.9,-0.73912 -1.3,0.27718 -1.9,0.18479 l -0.9,-0.55435 -0.8,-0.18478 c -0.51,0.64674 -1.01,0.27717 -1.41,0 l -1.1,-0.36956 c -3.4,0 -6.8,-0.18478 -10.2,-0.09239 -2.01,0 -4.01,-0.46196 -6.01,-0.09239 -0.9,0.09239 -1.8,0.18478 -2.7,0.09239 -2.3,-0.09239 -4.61,-0.36957 -7.01,-0.46196 -1.8,-0.09239 -3.5,0 -5.3,-0.18478 -1.1,-0.09239 -2.7,-0.64673 -3.8,0.36956 l -0.8,-0.36956 c 0.3,-1.10869 -1.01,-0.73913 -1.11,-0.64673 -1.3,0.73912 -2.8,0.55434 -4.2,1.01629 -1.5,0.55435 -2.9,0.92391 -4.7,0.27718 -1.1,-0.46196 -2.5,-0.55435 -3.91,-0.46196 -1.7,0.09239 -3.4,-0.09239 -4.8,-0.64673 -1.4,-0.55435 -2.8,-0.92391 -4.4,-0.83152 -0.5,0 -1,-0.46195 -1.6,-0.09239 -1.81,0.92391 -3.81,0.64673 -5.61,0.27717 -0.8,-0.18478 -1.2,-0.73913 -2.4,-0.36956 -0.8,0.27717 -1.7,0 -2.7,0.46195 -2,0.83152 -4.41,1.47825 -6.61,0.09239 l -0.5,0.09239 c 0.2,0.55435 1.5,0.18479 1.5,0.92391 l -1,0.36956 c -0.8,0.83152 -2.2,0.83152 -3.1,0.55435 -1.9,-0.55434 -3.8,-0.46195 -5.8,-0.64674 -0.71,-0.09239 -1.41,0 -2.21,0.09239 -1.3,0.18479 -2.7,0.0924 -3.9,0.55435 -0.6,0.18478 -1.2,-0.27717 -1.9,-0.18478 -2.1,0.46195 -4.4,0.36956 -6.61,0.55434 -0.7,0 -1.4,0.09239 -1.7,0.55435 -0.8,1.0163 -2.3,0.73912 -3.4,1.10869 -14.81,0 -28.32,-0.09239 -40.33,-0.09239 -0.4,-0.18478 -0.8,-0.27718 -0.9,0 h -0.2 c -0.4,-0.46196 -0.9,-0.73913 -1.4,-0.46196 -1,0.64674 -1.4,0.09239 -1.9,-0.36956 l -0.91,-0.46196 c -1,0.18479 -1.9,0 -2.9,0.0924 l -0.6,0.18478 c -0.3,1.0163 -1.2,0.46195 -1.6,0.18478 -0.9,-0.73913 -1.9,-0.55435 -3,-0.64674 -0.6,-0.09239 -1.1,0.27718 -1.7,0.0924 -1.5,-0.46196 -3.21,-0.18479 -4.41,-1.20109 l -0.7,0.09239 c -1.5,0.46196 -2.6,-0.36956 -3.5,-0.9239 -0.8,-0.55435 -1.3,-1.29347 -2.6,-1.10869 l 0.5,1.10869 c -2.2,-0.73913 -2.2,-0.73913 -2.2,0.36956 -0.9,-0.36956 -1.8,0.09239 -2.61,-0.18478 l -0.3,0.18478 c 0.3,0.64674 -0.6,0.55434 -0.7,0.46195 -0.8,-0.36956 -1.3,-0.09239 -1.9,0.27718 l -1,0.09239 c -1.7,0.27717 -3.5,-0.18478 -5.2,0.27717 -1,0.27717 -1.9,0.27717 -2.7,-0.27717 l -1.01,0.09239 c -0.4,0.36956 -1.1,0.73912 -2,0.46195 0.2,-0.46195 0.8,-0.09239 0.9,-0.46195 -0.3,-0.46196 -0.8,-0.18478 -1.2,-0.27717 -0.6,-0.09239 -1.2,0.27717 -1.7,-0.0924 -0.3,-0.27717 -0.6,-0.36956 -0.8,-0.27717 V 1.75543 c -8.61,5.17388 -10.71,4.71193 -21.52,3.14128 -1.2,-0.18478 -2.3,-0.27717 -3.3,0.27717 -0.6,0.36957 -1.3,0.27718 -2,0.18479 -0.7,-0.09239 -1.4,-0.18478 -2,0 -1.4,0.27717 -2.9,-0.64674 -4.31,0 l -0.3,-0.09239 c -0.6,-0.27718 -1.2,-0.27718 -1.8,-0.18479 -2.1,0.27718 -4.2,0.27718 -6.3,-0.46195 -1.6,-0.55435 -3.4,-0.27717 -5.01,0.36956 -1.2,0.46196 -2.4,1.10869 -3.9,0.46196 h -1.5 -1.3 c -1.9,-0.73913 -4,-0.73913 -6.01,-1.20108 -0.4,-0.09239 -0.9,-0.18479 -0.9,0.27717 0,0.64673 -0.5,0.73912 -1,0.92391 -1.2,0.46195 -2.5,0.55434 -3.8,0.36956 -1.7,-0.27717 -3.4,-0.55434 -5.2,-0.18478 l -1.41,-0.09239 c -1.7,-0.36957 -3.4,-0.09239 -5.1,0.27717 -2.3,0.64674 -4.7,0.92391 -6.4,2.49455 l -1.2,0.27718 c -1.81,-0.27718 -3.61,-0.36957 -5.31,0.09238 h -5 c -1.4,-0.46195 -2.71,-1.20108 -4.11,-1.84781 l -0.3,-0.46196 c 0,-0.73912 -0.5,-0.9239 -1.2,-0.46195 -0.5,0.27717 -0.9,0.46196 -1.5,0.27717 l -0.5,-0.09239 c -1.3,0.83152 -2.9,0.73913 -4.4,1.0163 -2.4,0.36957 -4.81,-0.36956 -7.21,0.36956 -2,0.64674 -4.3,0.18479 -6.4,0.83152 -0.2,0.09239 -0.4,0.09239 -0.7,0.18478 h -16.52 c -0.5,-0.09239 -1.1,-0.18478 -1.7,-0.27717 l -1.2,-0.55434 c -1.2,-1.0163 -2.6,-0.73913 -3.9,-0.36957 -1,0.27717 -1.8,0.18479 -2.7,-0.18478 -1.61,-0.64673 -3.31,-1.0163 -5.11,-0.92391 -2.1,0.09239 -4.2,-0.27717 -6.2,-0.46195 -3.01,-0.27717 -6.11,-0.83152 -8.91,0.55435 l -0.7,0.55434 0.1,0.55434 -0.9,-0.18478 c -0.8,-0.46195 -1.6,-0.64673 -2.6,-0.64673 -2.81,0 -5.61,0.27717 -8.31,-0.73913 -0.6,-0.18478 -1.7,-0.46195 -2.1,-0.27717 -1.4,0.55434 -2.6,0.27717 -3.8,0 -1.31,-0.27717 -2.41,0 -3.61,0.64673 -1.4,0.73913 -3.2,0.92391 -4.9,0.64674 -1,-0.18478 -2.1,-0.64674 -2.9,-1.47825 -0.6,-0.64674 -1.8,-1.20108 -3.21,-1.0163 -1,0.09239 -2,0.18478 -2.9,-0.64674 -0.8,-0.73912 -1,-1.84781 -2.3,-2.30977 -0.9,-0.27717 -1.9,-0.461951 -2.7,-1.201078 0.2,1.385858 -1.9,0.739126 -2,1.755428 l -0.5,-0.09239 c -0.9,-0.64674 -1.91,-0.27718 -3.11,-0.46196 l 1.1,0.46196 0.81,0.55434 c 0,0.36956 -0.5,0.18478 -0.81,0.27717 l -0.8,0.27718 c -0.3,0.64673 -0.9,0.55434 -1.5,0.55434 l -1.4,0.18478 c -0.9,0.64674 -2.4,0 -3.2,0.83152 l -0.5,-0.09239 c -1.6,-0.46195 -3.1,-0.83152 -5,-0.46196 -1.91,0.36957 -4.01,0.83152 -6.01,0.18479 l -0.8,0.18478 -0.7,0.18478 c -0.9,-0.92391 -2.1,-1.0163 -3.4,-1.10869 l -0.2,-0.18478 -0.8,-0.36957 c -1.21,0.0924 -2.51,-0.36956 -3.51,0.55435 l -1.3,-0.18478 -1.3,-0.09239 0.8,0.55434 0.1,0.27717 c -1.1,0.27718 -1.8,-1.20108 -2.9,-0.27717 l 0.9,0.64674 0.7,0.46195 c -0.1,0.46196 -0.6,0.09239 -1,0.18478 h -1 l 0.4,0.73913 c -1.5,0.55434 -4.4,0.55434 -5,-0.27717 -0.7,-0.92391 -1.51,-0.55435 -2.41,-0.55435 -1.2,0 -2.4,0.46196 -3.6,0.27717 -1.7,-0.18478 -3.4,-0.09239 -4.9,-0.83151 l -1.1,-0.09239 c -4.21,0.36956 -8.31,-0.09239 -12.51,-0.27718 -1.1,-0.09239 -2.21,0 -3.31,-0.09239 -0.6,-0.09239 -1.8,-0.18478 -1.8,-0.09239 -0.7,1.29347 -2.099,0.64674 -3.2,0.73913 -2.502,0.09239 -5.104,-0.73913 -7.606,0.09239 L 989.773,4.24998 988.772,4.0652 c -2.401,0.64673 -4.703,0.18478 -6.905,-0.27718 -0.701,-0.09239 -1.301,-0.09239 -2.002,-0.36956 -1.601,-0.83152 -3.402,-1.47825 -5.404,-1.57064 -2.502,-0.09239 -5.104,-0.09239 -7.606,-0.18479 -0.6,0 -1,0.55435 -1.701,0.18479 -1.101,-0.46196 -2.302,-0.36957 -3.503,-0.36957 -1.901,-0.09239 -3.703,0.36957 -5.604,0.18478 -1.802,-0.09239 -3.503,-0.64673 -5.304,-0.36956 l -0.701,-0.369562 c -0.1,-1.10869 -1.201,-0.369563 -1.701,-0.554344 -0.701,-0.2771727 -0.601,0.369563 -0.801,0.646736 -1.301,-0.9239088 -2.902,-0.646736 -4.403,-0.646736 -2.802,0.09239 -5.605,-0.092391 -8.307,0.461954 -1.901,0.369562 -4.003,0.461952 -6.004,0 l -1.401,0.09239 c -1.001,0.461952 -2.202,0.554342 -3.303,0.739122 -1.401,0.18479 -2.702,0.83152 -4.103,1.0163 -1.501,0.18479 -2.903,0.46196 -4.404,0.46196 -1.801,0.09239 -3.502,0.64673 -5.304,0.64673 -2.602,-0.09239 -5.304,-0.27717 -7.906,0.27718 -0.6,0.09239 -1.201,0 -1.701,-0.18479 -0.801,-0.36956 -1.702,-0.18478 -2.502,-0.09239 -1.301,0.09239 -2.502,0.36957 -3.803,0.36957 -3.203,0 -6.305,-1.0163 -9.508,-0.18479 h -0.3 c -2.702,0 -5.304,0 -8.006,0.27718 -2.002,0.27717 -4.003,0.46195 -6.005,1.10869 -0.901,0.27717 -2.302,-0.09239 -2.902,0.83151 h -0.501 c -2.201,0 -4.503,0.09239 -6.705,0 -1.301,0 -2.502,0.55435 -3.903,0.0924 l -1.001,0.09238 c -0.3,0.55435 -0.8,0.27718 -1.301,0.18479 -1.601,-0.27718 -3.302,-0.09239 -4.903,-0.36957 -0.701,-0.09239 -1.602,0.27718 -2.402,0.18478 -0.801,-0.09239 -2.002,0.0924 -2.402,-0.18478 -0.901,-0.73912 -1.301,0.27718 -1.902,0.18478 l -0.9,-0.55434 -0.801,-0.18478 c -0.5,0.64673 -1.001,0.27717 -1.401,0 l -1.101,-0.36956 c -3.403,0 -6.805,-0.18479 -10.208,-0.0924 -2.002,0 -4.003,-0.46195 -6.005,-0.09239 -0.9,0.09239 -1.801,0.18479 -2.702,0.09239 -1.701,-0.09239 -3.402,-0.18478 -5.104,-0.36956 -1.701,0.09239 -3.402,0.27717 -5.104,0.36956 -0.9,0 -1.801,0 -2.702,-0.09239 -2.001,-0.36956 -4.003,0.09239 -6.005,0.09239 -3.402,0 -6.805,0.0924 -10.208,0.0924 l -1.1,0.36956 c -0.401,0.27717 -0.901,0.64673 -1.401,0 l -0.801,0.18478 -0.901,0.55434 c -0.6,0.0924 -0.9,-0.9239 -1.901,-0.18478 -0.401,0.27718 -1.602,0.09239 -2.402,0.18478 -0.801,0.0924 -1.701,-0.27717 -2.402,-0.18478 -1.601,0.27718 -3.303,0.09239 -4.904,0.36957 -0.5,0.09239 -1.001,0.36956 -1.301,-0.18479 l -1.001,-0.09238 c -1.401,0.46195 -2.602,-0.0924 -3.903,-0.0924 -2.201,0 -4.503,0 -6.705,0 h -0.5 C 760.494,5.26628 759.193,5.63584 758.292,5.35867 756.391,4.71193 754.389,4.52715 752.288,4.24998 749.686,3.9728 746.984,3.9728 744.281,3.9728 h -0.3 c -3.202,-0.9239 -6.405,0.09239 -9.507,0.18479 -1.301,0 -2.502,-0.27718 -3.803,-0.36957 -0.901,-0.09239 -1.702,-0.18478 -2.502,0.09239 -0.601,0.27718 -1.201,0.36957 -1.701,0.18479 -2.602,-0.55435 -5.305,-0.27718 -7.907,-0.27718 -1.801,0 -3.502,-0.55434 -5.304,-0.64673 -1.401,-0.09239 -2.902,-0.36957 -4.403,-0.46196 -1.401,-0.18478 -2.702,-0.83151 -4.103,-1.0163 -1.101,-0.18478 -2.302,-0.27717 -3.303,-0.739122 l -1.401,-0.09239 c -2.002,0.461952 -4.103,0.369562 -6.005,0 -2.802,-0.554345 -5.604,-0.369564 -8.306,-0.461954 -1.501,-0.092391 -3.103,-0.2771728 -4.404,0.646736 -0.2,-0.277173 -0.1,-0.9239087 -0.8,-0.646736 -0.601,0.184781 -1.702,-0.4619548 -1.702,0.554344 l -0.7,0.369562 c -1.802,-0.18478 -3.603,0.27717 -5.304,0.36956 -1.902,0.0924 -3.703,-0.27717 -5.605,-0.18478 -1.201,0 -2.402,-0.09239 -3.502,0.36957 -0.701,0.27717 -1.101,-0.18479 -1.702,-0.18479 -2.502,0.0924 -5.104,0 -7.606,0.18479 -2.001,0.09239 -3.803,0.83151 -5.404,1.57064 -0.6,0.27717 -1.301,0.27717 -2.002,0.36956 -2.301,0.36957 -4.603,0.92391 -6.905,0.27718 l -1.001,0.18478 -1.101,0.18478 c -2.502,-0.83152 -5.003,-0.09239 -7.606,-0.09239 -1.1,0 -2.501,0.64673 -3.202,-0.73913 0,0 -1.201,0.09239 -1.801,0.09239 -1.101,0.18478 -2.202,0.09239 -3.303,0.09239 -4.203,0.27718 -8.307,0.64674 -12.51,0.27718 l -1.101,0.09239 c -1.501,0.73912 -3.302,0.64673 -4.904,0.83151 -1.2,0.18478 -2.401,-0.27717 -3.602,-0.27717 -0.901,0 -1.702,-0.36956 -2.402,0.55435 -0.601,0.83151 -3.403,0.83151 -5.004,0.27717 l 0.4,-0.73913 h -1.001 c -0.4,0 -0.9,0.27717 -1,-0.18478 l 0.7,-0.46195 0.901,-0.64674 c -1.101,-1.0163 -1.801,0.55435 -2.902,0.27717 l 0.1,-0.27717 0.8,-0.55434 -1.301,0.09239 -1.301,0.18478 c -1,-0.92391 -2.301,-0.46196 -3.502,-0.55435 l -0.801,0.36957 -0.2,0.18478 c -1.301,0.09239 -2.502,0.18478 -3.403,1.10869 l -0.7,-0.18478 -0.801,-0.18479 c -2.002,0.73913 -4.103,0.18479 -6.005,-0.18478 -1.901,-0.36956 -3.402,-0.09239 -5.004,0.46196 l -0.5,0.09239 C 566.242,3.41846 564.841,4.0652 563.84,3.51085 l -1.401,-0.18478 c -0.7,0 -1.301,0.09239 -1.501,-0.55435 l -0.8,-0.27717 c -0.301,-0.09239 -0.801,0.09239 -0.801,-0.27717 l 0.801,-0.55435 1.1,-0.46195 c -1.201,0.18478 -2.201,-0.18478 -3.102,0.46195 l -0.5,0.0924 C 557.536,0.646736 555.434,1.29347 555.634,0 c -0.801,0.739126 -1.901,0.923908 -2.702,1.20108 -1.301,0.46195 -1.501,1.57064 -2.302,2.30977 -1.001,0.83152 -2.001,0.73913 -2.902,0.64674 -1.501,-0.18479 -2.702,0.36956 -3.203,1.01629 -0.8,0.92391 -1.801,1.29348 -2.902,1.47826 -1.601,0.27717 -3.503,0.09239 -4.904,-0.64674 -1.201,-0.64673 -2.201,-0.92391 -3.603,-0.64673 -1.301,0.27717 -2.501,0.55434 -3.802,0 -0.401,-0.18478 -1.502,0.09239 -2.102,0.27717 -2.702,1.0163 -5.504,0.73912 -8.307,0.73912 -1,0 -1.801,0.18479 -2.602,0.64674 l -0.9,0.18478 0.1,-0.55434 -0.701,-0.55435 c -2.902,-1.47825 -5.904,-0.83151 -8.907,-0.55434 -2.101,0.18478 -4.103,0.55434 -6.205,0.46195 -1.701,-0.09239 -3.502,0.27717 -5.104,0.92391 -0.9,0.36956 -1.601,0.46195 -2.702,0.18478 -1.301,-0.36956 -2.702,-0.64673 -3.903,0.36956 L 486.78,8.038 c -0.6,0.09239 -1.101,0.18478 -1.701,0.27717 h -16.513 c -0.2,-0.09239 -0.4,-0.09239 -0.7,-0.18478 -2.002,-0.64673 -4.304,-0.27717 -6.405,-0.83152 -2.402,-0.73912 -4.804,0 -7.206,-0.36956 -1.501,-0.27717 -3.103,-0.18478 -4.404,-1.0163 l -0.8,-0.09239 c -0.601,0.18478 -1.001,0 -1.501,-0.27717 -0.801,-0.46196 -1.201,-0.27717 -1.201,0.46195 l -0.301,0.46196 c -1.401,0.55434 -2.702,1.38586 -4.103,1.84781 h -5.004 C 435.24,7.94561 433.439,7.94561 431.637,8.22278 L 430.436,7.94561 C 428.735,6.37497 426.233,6.09779 424.031,5.45106 422.43,4.9891 420.729,4.80432 418.927,5.17388 l -1.401,0.0924 c -1.801,-0.27718 -3.503,-1e-5 -5.204,0.18478 -1.301,0.18478 -2.602,0.09239 -3.803,-0.36957 -0.5,-0.18478 -1.001,-0.27717 -1.001,-0.9239 0,-0.46196 -0.5,-0.36957 -0.9,-0.27718 -2.002,0.46196 -4.104,0.46196 -6.005,1.20108 h -1.301 -1.501 c -1.501,0.55435 -2.602,-0.09239 -3.903,-0.46195 -1.602,-0.55435 -3.403,-0.83152 -5.004,-0.36956 -2.102,0.64673 -4.103,0.73912 -6.305,0.46195 -0.701,-0.09239 -1.301,-0.18478 -1.802,0.18478 l -0.3,0.09239 c -1.401,-0.64673 -2.902,0.27717 -4.303,0 -0.701,-0.18478 -1.401,-0.09239 -2.002,0 -0.7,0 -1.401,0.09239 -2.001,-0.18478 -1.001,-0.55434 -2.102,-0.46195 -3.303,-0.27717 -10.808,1.57064 -12.81,2.12499 -21.517,-3.14129 v 3.14129 c -0.2,-0.09239 -0.5,0 -0.8,0.27717 -0.501,0.46196 -1.101,0 -1.702,0.09239 -0.4,0.09239 -0.9,-0.09239 -1.201,0.27717 0.101,0.46196 0.801,0.0924 0.901,0.46196 -0.8,0.27717 -1.601,-0.09239 -2.001,-0.46196 l -1.001,-0.09239 c -0.801,0.55435 -1.701,0.55435 -2.702,0.27718 -1.702,-0.46196 -3.503,-0.09239 -5.204,-0.27718 L 332.66,4.9891 c -0.601,-0.36956 -1.101,-0.55434 -1.902,-0.27717 -0.1,0.09239 -1,0.18478 -0.7,-0.46195 h 0.2 c -0.901,0.27717 -1.801,-0.18478 -2.602,0.18478 0,-1.0163 0,-1.0163 -2.202,-0.36956 l 0.501,-1.10869 c -1.301,-0.18479 -1.802,0.55434 -2.602,1.10869 -0.901,0.64673 -2.002,1.38586 -3.503,0.9239 l -0.701,-0.09239 c -1.201,1.0163 -2.902,0.73913 -4.403,1.20108 -0.601,0.18478 -1.101,-0.09239 -1.701,-0.09239 -1.101,0.09239 -2.102,-0.09239 -3.003,0.64674 -0.4,0.27717 -1.301,0.83151 -1.601,-0.18478 L 307.84,6.28258 c -1,-0.0924 -1.901,0.09239 -2.902,-0.0924 l -0.9,0.46196 c -0.501,0.46195 -0.801,1.0163 -1.902,0.36956 -0.5,-0.36956 -1.101,-0.09239 -1.401,0.46195 h -0.2 c -0.1,-0.27717 -0.501,-0.18478 -0.901,0 -12.009,0 -25.52,1e-5 -40.331,0.0924 -1.101,-0.36957 -2.602,0 -3.403,-1.10869 -0.3,-0.36957 -1.101,-0.46196 -1.701,-0.55435 -2.202,-0.18478 -4.404,-0.09239 -6.606,-0.55434 -0.7,-0.09239 -1.301,0.36956 -1.901,0.18478 -1.301,-0.46196 -2.602,-0.36957 -3.903,-0.55435 -0.701,-0.09239 -1.401,-0.18478 -2.202,-0.09239 -1.901,0.18478 -3.803,0.09239 -5.804,0.64674 -1.001,0.27717 -2.302,0.27717 -3.103,-0.55435 l -1.001,-0.36956 c 0,-0.73913 1.301,-0.36956 1.502,-0.92391 L 230.68,3.60324 c -2.202,1.38586 -4.503,0.73913 -6.605,-0.09239 -1.001,-0.36956 -1.901,-0.18478 -2.702,-0.46195 -1.101,-0.36957 -1.601,0.18478 -2.402,0.36956 -1.801,0.36956 -3.803,0.64674 -5.604,-0.27717 -0.601,-0.27717 -1.001,0.18478 -1.602,0.09239 -1.601,-0.09239 -3.002,0.27717 -4.403,0.83152 -1.501,0.55434 -3.203,0.73912 -4.804,0.64673 -1.401,-0.09239 -2.802,0.09239 -3.903,0.46195 -1.701,0.64674 -3.202,0.27718 -4.703,-0.27717 -1.301,-0.46195 -2.903,-0.27717 -4.204,-1.0163 -0.1,-0.09239 -1.501,-0.46195 -1.101,0.64674 l -0.8,0.36956 c -1.101,-1.0163 -2.602,-0.46195 -3.803,-0.36956 -1.802,0.27717 -3.603,0.09239 -5.304,0.18478 -2.302,0.18478 -4.604,0.36956 -7.006,0.46195 -0.901,0 -1.801,0 -2.702,-0.09239 -2.002,-0.36956 -4.003,0.09239 -6.005,0.09239 -3.402,0 -6.805,0.0924 -10.208,0.0924 l -1.1,0.36956 c -0.401,0.27717 -0.901,0.64673 -1.402,0 l -0.8,0.18478 -0.901,0.55434 c -0.6,0.0924 -0.901,-0.9239 -1.901,-0.18478 -0.401,0.27718 -1.602,0.09239 -2.402,0.18478 -0.801,0.0924 -1.702,-0.27717 -2.402,-0.18478 -1.601,0.27718 -3.303,0.09239 -4.904,0.36957 -0.5,0.09239 -1.001,0.36956 -1.301,-0.18479 l -1.001,-0.09238 c -1.401,0.46195 -2.602,-0.0924 -3.903,-0.0924 -2.202,0 -4.503,0 -6.705,0 h -0.5 C 122.896,5.26628 121.595,5.63584 120.694,5.35867 118.793,4.71193 116.791,4.52715 114.79,4.24998 112.188,3.9728 109.486,3.9728 106.783,3.9728 h -0.3 c -3.202,-0.9239 -6.405,0.09239 -9.5072,0.18479 -1.3011,0 -2.502,-0.27718 -3.803,-0.36957 C 92.2721,3.69563 91.4715,3.60324 90.6708,3.88041 90.0704,4.15759 89.4699,4.24998 88.9695,4.0652 86.3675,3.51085 83.6654,3.78802 81.0633,3.78802 79.2619,3.78802 77.5606,3.23368 75.7592,3.14129 74.3581,3.0489 72.8569,2.77172 71.3557,2.67933 69.9547,2.49455 68.6536,1.84782 67.2525,1.66303 66.1517,1.47825 64.9507,1.38586 63.95,0.923908 l -1.4011,-0.09239 c -2.0016,0.461952 -4.1032,0.369562 -6.0047,0 C 53.742,0.277173 50.9398,0.461954 48.2377,0.369564 46.7365,0.277173 45.1353,0.0923912 43.8342,1.0163 43.6341,0.739127 43.7342,0.0923913 43.0336,0.369564 42.4332,0.554345 41.3323,-0.0923908 41.3323,0.923908 L 40.6317,1.29347 c -1.8014,-0.18478 -3.6028,0.27717 -5.3041,0.36956 -1.9015,0.0924 -3.7029,-0.27717 -5.6044,-0.18478 -1.2009,0 -2.4019,-0.09239 -3.5027,0.36957 -0.7006,0.27717 -1.1009,-0.18479 -1.7013,-0.18479 -2.502,0.0924 -5.104,0 -7.606,0.18479 C 14.9116,1.94021 13.1102,2.67933 11.509,3.41846 10.9085,3.69563 10.208,3.69563 9.50743,3.78802 7.20563,4.15759 4.90383,4.71193 2.60203,4.0652 L 1.60125,4.24998 0.500391,4.43476 C 0.400313,4.34237 0.200156,4.24998 0,4.24998 v 673.25202 289.183 6.929 c 8.60672,-5.174 10.7084,-4.712 21.5168,-3.141 1.2009,0.185 2.3018,0.277 3.3026,-0.277 0.6005,-0.37 1.301,-0.277 2.0016,-0.185 0.7005,0.092 1.401,0.185 2.0015,0 1.4011,-0.277 2.9023,0.647 4.3034,0 l 0.3002,0.092 c 0.6005,0.278 1.201,0.277 1.8014,0.185 2.1017,-0.277 4.2033,-0.277 6.3049,0.462 1.6013,0.554 3.4027,0.277 5.004,-0.37 1.2009,-0.462 2.4018,-1.108 3.903,-0.462 h 1.5012 1.301 c 1.9015,0.74 4.0031,0.74 6.0047,1.202 0.4003,0.092 0.9007,0.184 0.9007,-0.278 0,-0.646 0.5004,-0.739 1.0008,-0.924 1.2009,-0.461 2.5019,-0.554 3.8029,-0.369 1.7014,0.277 3.4027,0.554 5.2041,0.185 l 1.4011,0.092 c 1.7013,0.37 3.4027,0.093 5.104,-0.277 2.3018,-0.647 4.7037,-0.924 6.405,-2.495 l 1.2009,-0.277 c 1.8014,0.277 3.6028,0.37 5.3042,-0.092 h 5.0039 c 1.4011,0.462 2.7021,1.201 4.1032,1.848 l 0.3002,0.462 c 0,0.739 0.5004,0.923 1.2007,0.462 0.501,-0.278 0.901,-0.462 1.501,-0.278 l 0.801,-0.092 c 1.301,-0.831 2.902,-0.739 4.404,-1.016 2.401,-0.37 4.803,0.369 7.205,-0.37 2.002,-0.647 4.303,-0.185 6.405,-0.831 0.2,-0.093 0.4,-0.093 0.701,-0.185 h 16.513 c 0.5,0.092 1.1,0.185 1.701,0.277 l 1.201,0.554 c 1.201,1.017 2.602,0.739 3.903,0.37 1.001,-0.277 1.801,-0.185 2.702,0.185 1.601,0.646 3.303,1.016 5.104,0.924 2.102,-0.093 4.203,0.277 6.205,0.462 3.002,0.277 6.105,0.831 8.907,-0.555 l 0.7,-0.554 -0.1,-0.554 0.901,0.184 c 0.801,0.462 1.601,0.647 2.602,0.647 2.802,0 5.604,-0.277 8.306,0.739 0.601,0.185 1.702,0.462 2.102,0.277 1.401,-0.554 2.602,-0.277 3.803,0 1.301,0.278 2.402,0 3.603,-0.646 1.401,-0.74 3.202,-0.924 4.904,-0.647 1.001,0.185 2.101,0.647 2.902,1.478 0.6,0.647 1.801,1.201 3.203,1.016 1,-0.092 2.001,-0.184 2.902,0.647 0.8,0.739 1.001,1.848 2.302,2.31 0.9,0.277 1.901,0.462 2.702,1.201 -0.2,-1.386 1.901,-0.739 2.001,-1.755 l 0.501,0.092 c 0.9,0.647 1.901,0.277 3.102,0.462 l -1.101,-0.462 -0.8,-0.554 c 0,-0.37 0.5,-0.185 0.8,-0.278 l 0.801,-0.277 c 0.3,-0.646 0.901,-0.554 1.501,-0.554 l 1.401,-0.185 c 0.901,-0.647 2.402,0 3.203,-0.831 l 0.5,0.092 c 1.601,0.462 3.102,0.832 5.004,0.462 1.901,-0.37 4.003,-0.832 6.005,-0.185 l 0.8,-0.185 0.701,-0.184 c 0.9,0.924 2.101,1.016 3.402,1.108 l 0.201,0.185 0.8,0.37 c 1.201,-0.093 2.502,0.369 3.503,-0.555 l 1.301,0.185 1.301,0.093 -0.801,-0.555 -0.1,-0.277 c 1.101,-0.277 1.802,1.201 2.903,0.277 l -0.901,-0.647 -0.701,-0.462 c 0.1,-0.462 0.601,-0.092 1.001,-0.184 h 1.001 l -0.4,-0.739 c 1.501,-0.555 4.403,-0.555 5.003,0.277 0.701,0.924 1.502,0.554 2.402,0.554 1.201,0 2.402,-0.462 3.603,-0.277 1.701,0.185 3.403,0.092 4.904,0.831 l 1.101,0.093 c 4.203,-0.37 8.306,0.092 12.51,0.277 1.1,0.092 2.201,0 3.302,0.092 0.601,0.093 1.802,0.185 1.802,0.093 0.7,-1.294 2.101,-0.647 3.202,-0.739 2.502,-0.093 5.104,0.739 7.606,-0.093 l 1.101,0.185 1.001,0.185 c 2.402,-0.647 4.703,-0.185 6.905,0.277 0.701,0.092 1.301,0.092 2.002,0.37 1.601,0.831 3.402,1.478 5.404,1.57 2.502,0.093 5.104,0.093 7.606,0.185 0.6,0 1.001,-0.554 1.701,-0.185 1.101,0.462 2.302,0.37 3.503,0.37 1.901,0.092 3.703,-0.37 5.604,-0.185 1.802,0.092 3.503,0.647 5.304,0.37 l 0.701,0.369 c 0.1,1.109 1.201,0.37 1.701,0.554 0.701,0.278 0.601,-0.369 0.801,-0.646 1.301,0.924 2.902,0.646 4.403,0.646 2.803,-0.092 5.605,0.093 8.307,-0.461 1.901,-0.37 4.003,-0.462 6.005,0 l 1.401,-0.093 c 1,-0.462 2.201,-0.554 3.302,-0.739 1.401,-0.185 2.702,-0.831 4.103,-1.016 1.502,-0.185 2.903,-0.462 4.404,-0.462 1.801,-0.093 3.503,-0.647 5.304,-0.647 2.602,0.092 5.304,0.277 7.906,-0.277 0.601,-0.093 1.201,0 1.701,0.185 0.801,0.369 1.702,0.184 2.502,0.092 1.301,-0.092 2.502,-0.37 3.803,-0.37 3.203,0 6.305,1.017 9.508,0.185 h 0.3 c 2.702,0 5.304,0 8.006,-0.277 2.002,-0.277 4.003,-0.462 5.905,-1.109 0.901,-0.277 2.302,0.093 2.902,-0.831 h 0.501 c 2.201,0 4.503,-0.093 6.705,0 1.301,0 2.502,-0.554 3.903,-0.093 l 1.001,-0.092 c 0.3,-0.554 0.8,-0.277 1.301,-0.185 1.601,0.277 3.302,0.093 4.904,0.37 0.7,0.092 1.601,-0.277 2.401,-0.185 0.801,0.093 2.002,-0.092 2.402,0.185 0.901,0.739 1.301,-0.277 1.902,-0.185 l 0.9,0.554 0.801,0.185 c 0.5,-0.647 1.001,-0.277 1.401,0 l 1.101,0.37 c 3.403,0 6.805,0.185 10.208,0.092 2.002,0 4.003,0.462 6.005,0.092 0.9,-0.092 1.801,-0.184 2.702,-0.092 2.302,0.093 4.603,0.37 7.005,0.462 1.802,0.092 3.503,0 5.304,0.185 1.101,0.092 2.703,0.647 3.803,-0.37 l 0.801,0.37 c -0.3,1.109 1.001,0.739 1.101,0.647 1.301,-0.739 2.802,-0.555 4.203,-1.017 1.501,-0.554 2.902,-0.924 4.704,-0.277 1.101,0.462 2.502,0.554 3.903,0.462 1.701,-0.092 3.403,0.093 4.804,0.647 1.401,0.554 2.802,0.924 4.403,0.831 0.5,0 1.001,0.462 1.601,0.093 1.802,-0.924 3.803,-0.647 5.605,-0.277 0.8,0.184 1.201,0.739 2.402,0.369 0.8,-0.277 1.701,0 2.702,-0.462 2.001,-0.831 4.403,-1.478 6.605,-0.092 l 0.5,-0.093 c -0.2,-0.554 -1.501,-0.184 -1.501,-0.924 l 1.001,-0.369 c 0.801,-0.832 2.202,-0.832 3.102,-0.554 1.902,0.554 3.803,0.462 5.805,0.646 0.7,0.093 1.401,0 2.202,-0.092 1.301,-0.185 2.702,-0.093 3.903,-0.554 0.6,-0.185 1.201,0.277 1.901,0.184 2.102,-0.462 4.404,-0.369 6.605,-0.554 0.701,0 1.401,-0.092 1.702,-0.554 0.8,-1.017 2.301,-0.739 3.402,-1.109 14.812,0 28.322,0.092 40.332,0.092 0.4,0.185 0.8,0.278 0.9,0 h 0.201 c 0.4,0.462 0.9,0.739 1.401,0.462 1,-0.646 1.401,-0.092 1.901,0.37 l 0.901,0.462 c 1.001,-0.185 1.901,0 2.902,-0.093 l 0.601,-0.184 c 0.3,-1.017 1.201,-0.462 1.601,-0.185 0.901,0.739 1.901,0.554 3.002,0.647 0.601,0.092 1.101,-0.278 1.702,-0.093 1.501,0.462 3.202,0.185 4.403,1.201 l 0.701,-0.092 c 1.501,-0.462 2.602,0.37 3.502,0.924 0.801,0.554 1.301,1.293 2.602,1.109 l -0.5,-1.109 c 2.202,0.739 2.202,0.739 2.202,-0.37 0.9,0.37 1.801,-0.092 2.602,0.185 l 0.3,-0.185 c -0.3,-0.646 0.6,-0.554 0.7,-0.462 0.801,0.37 1.301,0.093 1.902,-0.277 l 1.001,-0.092 c 1.701,-0.277 3.502,0.184 5.204,-0.277 1.001,-0.278 1.901,-0.278 2.702,0.277 l 1.001,-0.093 c 0.4,-0.369 1.101,-0.739 2.001,-0.462 -0.2,0.462 -0.8,0.093 -0.901,0.462 0.301,0.462 0.801,0.185 1.201,0.277 0.601,0.093 1.201,-0.277 1.702,0.093 0.3,0.277 0.6,0.369 0.8,0.277 v 3.141 c 8.607,-5.174 10.709,-4.712 21.517,-3.141 1.201,0.185 2.302,0.277 3.303,-0.277 0.6,-0.37 1.301,-0.277 2.001,-0.185 0.701,0.093 1.401,0.185 2.002,0 1.401,-0.277 2.902,0.647 4.303,0 l 0.301,0.092 c 0.6,0.278 1.201,0.278 1.801,0.185 2.102,-0.277 4.203,-0.277 6.305,0.462 1.601,0.555 3.402,0.277 5.004,-0.369 1.201,-0.462 2.402,-1.109 3.903,-0.462 h 1.501 1.301 c 1.901,0.739 4.003,0.739 6.005,1.201 0.4,0.092 0.9,0.185 0.9,-0.277 0,-0.647 0.501,-0.739 1.001,-0.924 1.201,-0.462 2.502,-0.555 3.803,-0.37 1.702,0.277 3.403,0.555 5.204,0.185 l 1.401,0.092 c 1.702,0.37 3.403,0.093 5.104,-0.277 2.302,-0.647 4.704,-0.924 6.405,-2.494 l 1.201,-0.278 c 1.802,0.278 3.603,0.37 5.304,-0.092 h 5.004 c 1.401,0.462 2.702,1.201 4.103,1.848 l 0.301,0.462 c 0,0.739 0.5,0.924 1.201,0.462 0.5,-0.277 0.9,-0.462 1.501,-0.277 l 0.801,-0.093 c 1.301,-0.831 2.902,-0.739 4.403,-1.016 2.402,-0.37 4.804,0.369 7.206,-0.37 2.001,-0.646 4.303,-0.184 6.405,-0.831 0.2,-0.093 0.4,-0.093 0.7,-0.185 h 16.513 c 0.5,0.092 1.101,0.185 1.701,0.277 l 1.201,0.555 c 1.201,1.016 2.602,0.739 3.903,0.369 1.001,-0.277 1.802,-0.185 2.702,0.185 1.602,0.647 3.303,1.016 5.104,0.924 2.102,-0.093 4.204,0.277 6.205,0.462 3.003,0.277 6.105,0.831 8.907,-0.555 l 0.701,-0.554 -0.1,-0.554 0.9,0.185 c 0.801,0.462 1.602,0.646 2.602,0.646 2.803,0 5.605,-0.277 8.307,0.739 0.6,0.185 1.701,0.462 2.102,0.278 1.401,-0.555 2.602,-0.278 3.802,0 1.301,0.277 2.402,0 3.603,-0.647 1.401,-0.739 3.203,-0.924 4.904,-0.647 1.001,0.185 2.102,0.647 2.902,1.478 0.601,0.647 1.802,1.201 3.203,1.017 1.001,-0.093 2.002,-0.185 2.902,0.646 0.801,0.739 1.001,1.848 2.302,2.31 0.901,0.277 1.901,0.462 2.702,1.201 -0.2,-1.386 1.902,-0.739 2.002,-1.755 l 0.5,0.092 c 0.901,0.647 1.902,0.277 3.102,0.462 l -1.1,-0.462 -0.801,-0.554 c 0,-0.37 0.5,-0.185 0.801,-0.277 l 0.8,-0.277 c 0.3,-0.647 0.901,-0.555 1.501,-0.555 l 1.402,-0.185 c 0.9,-0.646 2.401,0 3.202,-0.831 l 0.5,0.092 c 1.602,0.462 3.103,0.832 5.004,0.462 1.902,-0.369 4.003,-0.831 6.005,-0.185 l 0.801,-0.184 0.7,-0.185 c 0.901,0.924 2.102,1.016 3.403,1.109 l 0.2,0.184 0.801,0.37 c 1.201,-0.093 2.502,0.369 3.502,-0.554 l 1.301,0.184 1.301,0.093 -0.8,-0.555 -0.1,-0.277 c 1.101,-0.277 1.801,1.201 2.902,0.277 l -0.901,-0.646 -0.7,-0.462 c 0.1,-0.462 0.6,-0.093 1.001,-0.185 h 1 l -0.4,-0.739 c 1.501,-0.555 4.403,-0.555 5.004,0.277 0.7,0.924 1.501,0.554 2.402,0.554 1.201,0 2.402,-0.462 3.603,-0.277 1.701,0.185 3.402,0.093 4.903,0.832 l 1.101,0.092 c 4.204,-0.37 8.307,0.092 12.51,0.277 1.101,0.093 2.202,0 3.303,0.093 0.6,0.092 1.801,0.184 1.801,0.092 0.701,-1.293 2.102,-0.647 3.203,-0.739 2.501,-0.092 5.104,0.739 7.605,-0.093 l 1.101,0.185 1.001,0.185 c 2.402,-0.647 4.704,-0.185 6.906,0.277 0.7,0.093 1.301,0.093 2.001,0.37 1.601,0.831 3.403,1.478 5.404,1.57 2.502,0.093 5.104,0.093 7.606,0.185 0.601,0 1.001,-0.554 1.702,-0.185 1.1,0.462 2.301,0.37 3.502,0.37 1.902,0.092 3.703,-0.37 5.605,-0.185 1.801,0.093 3.502,0.647 5.304,0.37 l 0.7,0.369 c 0.1,1.109 1.201,0.37 1.702,0.555 0.7,0.277 0.6,-0.37 0.8,-0.647 1.301,0.924 2.903,0.647 4.404,0.647 2.802,-0.093 5.604,0.092 8.306,-0.462 1.902,-0.37 4.003,-0.462 6.005,0 l 1.401,-0.093 c 1.001,-0.462 2.202,-0.554 3.303,-0.739 1.401,-0.185 2.702,-0.831 4.103,-1.016 1.499,-0.185 2.899,-0.462 4.399,-0.462 1.81,-0.092 3.51,-0.647 5.31,-0.647 2.6,0.093 5.3,0.277 7.9,-0.277 0.61,-0.092 1.21,0 1.71,0.185 0.8,0.369 1.7,0.185 2.5,0.092 1.3,-0.092 2.5,-0.369 3.8,-0.369 3.2,0 6.31,1.016 9.51,0.184 h 0.3 c 2.7,0 5.3,0 8,-0.277 2.01,-0.277 4.01,-0.462 6.01,-1.108 0.9,-0.278 2.3,0.092 2.9,-0.832 h 0.5 c 2.2,0 4.51,-0.092 6.71,0 1.3,0 2.5,-0.554 3.9,-0.092 l 1,-0.093 c 0.3,-0.554 0.8,-0.277 1.3,-0.185 1.6,0.278 3.3,0.093 4.91,0.37 0.7,0.093 1.6,-0.277 2.4,-0.185 0.8,0.093 2,-0.092 2.4,0.185 0.9,0.739 1.3,-0.277 1.9,-0.185 l 0.9,0.555 0.8,0.184 c 0.5,-0.646 1,-0.277 1.4,0 l 1.1,0.37 c 3.41,0 6.81,0.185 10.21,0.092 2,0 4.01,0.462 6.01,0.093 0.9,-0.093 1.8,-0.185 2.7,-0.093 1.7,0.093 3.4,0.185 5.1,0.37 1.7,-0.092 3.41,-0.277 5.11,-0.37 0.9,0 1.8,0 2.7,0.093 2,0.369 4,-0.093 6,-0.093 3.41,0 6.81,-0.092 10.21,-0.092 l 1.1,-0.37 c 0.4,-0.277 0.9,-0.646 1.4,0 l 0.8,-0.184 0.91,-0.555 c 0.6,-0.092 0.9,0.924 1.9,0.185 0.4,-0.277 1.6,-0.092 2.4,-0.185 0.8,-0.092 1.7,0.278 2.4,0.185 1.6,-0.277 3.3,-0.092 4.9,-0.37 0.5,-0.092 1.01,-0.369 1.31,0.185 l 1,0.093 c 1.4,-0.462 2.6,0.092 3.9,0.092 2.2,0 4.5,0 6.7,0 h 0.5 c 0.71,0.924 2.01,0.554 2.91,0.832 1.9,0.646 3.9,0.831 6,1.108 2.6,0.277 5.31,0.277 8.01,0.277 h 0.3 c 3.2,0.924 6.4,-0.092 9.51,-0.184 1.3,0 2.5,0.277 3.8,0.369 0.9,0.093 1.7,0.185 2.5,-0.092 0.6,-0.277 1.2,-0.37 1.7,-0.185 2.6,0.554 5.31,0.277 7.91,0.277 1.8,0 3.5,0.555 5.3,0.647 1.4,0.092 2.9,0.369 4.41,0.462 1.4,0.185 2.7,0.831 4.1,1.016 1.1,0.185 2.3,0.277 3.3,0.739 l 1.4,0.093 c 2,-0.462 4.11,-0.37 6.01,0 2.8,0.554 5.6,0.369 8.3,0.462 1.51,0.092 3.11,0.277 4.41,-0.647 0.2,0.277 0.1,0.924 0.8,0.647 0.6,-0.185 1.7,0.462 1.7,-0.555 l 0.7,-0.369 c 1.8,0.185 3.6,-0.277 5.3,-0.37 1.91,-0.092 3.71,0.277 5.61,0.185 1.2,0 2.4,0.092 3.5,-0.37 0.7,-0.277 1.1,0.185 1.7,0.185 2.5,-0.092 5.11,0 7.61,-0.185 2,-0.092 3.8,-0.831 5.4,-1.57 0.6,-0.277 1.3,-0.277 2,-0.37 2.31,-0.369 4.61,-0.924 6.91,-0.277 l 1,-0.185 1.1,-0.185 c 2.5,0.832 5.01,0.093 7.61,0.093 1.1,0 2.5,-0.647 3.2,0.739 0,0 1.2,-0.092 1.8,-0.092 1.1,-0.185 2.2,-0.093 3.3,-0.093 4.21,-0.277 8.31,-0.647 12.51,-0.277 l 1.1,-0.092 c 1.51,-0.739 3.31,-0.647 4.91,-0.832 1.2,-0.185 2.4,0.277 3.6,0.277 0.9,0 1.7,0.37 2.4,-0.554 0.6,-0.832 3.41,-0.832 5.01,-0.277 l -0.4,0.739 h 1 c 0.4,0 0.9,-0.277 1,0.185 l -0.7,0.462 -0.9,0.646 c 1.1,1.017 1.8,-0.554 2.9,-0.277 l -0.1,0.277 -0.8,0.555 1.3,-0.093 1.3,-0.184 c 1,0.923 2.3,0.461 3.5,0.554 l 0.8,-0.37 0.2,-0.184 c 1.3,-0.093 2.51,-0.185 3.41,-1.109 l 0.7,0.185 0.8,0.184 c 2,-0.739 4.1,-0.184 6,0.185 1.9,0.37 3.4,0.093 5.01,-0.462 l 0.5,-0.092 c 0.8,0.924 2.2,0.277 3.2,0.831 l 1.4,0.185 c 0.7,0 1.3,-0.092 1.5,0.555 l 0.8,0.277 c 0.3,0.092 0.8,-0.093 0.8,0.277 l -0.8,0.554 -1.1,0.462 c 1.2,-0.185 2.2,0.185 3.1,-0.462 l 0.5,-0.092 c 0.1,1.109 2.21,0.462 2.01,1.755 0.8,-0.739 1.9,-0.924 2.7,-1.201 1.3,-0.462 1.5,-1.571 2.3,-2.31 1,-0.831 2,-0.739 2.9,-0.646 1.5,0.184 2.7,-0.37 3.2,-1.017 0.8,-0.924 1.81,-1.293 2.91,-1.478 1.6,-0.277 3.5,-0.092 4.9,0.647 1.2,0.647 2.2,0.924 3.6,0.647 1.3,-0.278 2.51,-0.555 3.81,0 0.4,0.184 1.5,-0.093 2.1,-0.278 2.7,-1.016 5.5,-0.739 8.3,-0.739 1,0 1.81,-0.184 2.61,-0.646 l 0.9,-0.185 -0.1,0.554 0.7,0.554 c 2.9,1.479 5.9,0.832 8.9,0.555 2.11,-0.185 4.11,-0.555 6.21,-0.462 1.7,0.092 3.5,-0.277 5.1,-0.924 0.9,-0.37 1.6,-0.462 2.71,-0.185 1.3,0.37 2.7,0.647 3.9,-0.369 l 1.2,-0.555 c 0.6,-0.092 1.1,-0.185 1.7,-0.277 h 16.51 c 0.2,0.092 0.4,0.092 0.7,0.185 2.01,0.647 4.31,0.277 6.41,0.831 2.4,0.739 4.8,0 7.2,0.37 1.51,0.277 3.11,0.185 4.41,1.016 l 0.8,0.093 c 0.6,-0.185 1,0 1.5,0.277 0.8,0.462 1.2,0.277 1.2,-0.462 l 0.3,-0.462 c 1.4,-0.554 2.7,-1.386 4.1,-1.848 h 5.01 c 1.7,0.37 3.5,0.37 5.3,0.092 l 1.2,0.278 c 1.7,1.57 4.21,1.847 6.41,2.494 1.6,0.462 3.3,0.647 5.1,0.277 l 1.4,-0.092 c 1.8,0.277 3.51,0 5.21,-0.185 1.3,-0.185 2.6,-0.092 3.8,0.37 0.5,0.185 1,0.277 1,0.924 0,0.462 0.5,0.369 0.9,0.277 2,-0.462 4.11,-0.462 5.91,-1.201 h 1.3 1.5 c 1.5,-0.555 2.6,0.092 3.9,0.462 1.6,0.554 3.4,0.831 5.01,0.369 2.1,-0.646 4.1,-0.739 6.3,-0.462 0.7,0.093 1.3,0.185 1.8,-0.185 l 0.3,-0.092 c 1.4,0.647 2.9,-0.277 4.31,0 0.7,0.185 1.4,0.093 2,0 0.7,0 1.4,-0.092 2,0.185 1,0.554 2.1,0.462 3.3,0.277 10.81,-1.571 12.81,-2.125 21.52,3.141 v -3.141 c 0.2,0.092 0.5,0 0.8,-0.277 0.5,-0.462 1.1,0 1.7,-0.093 0.4,-0.092 0.9,0.093 1.2,-0.277 -0.1,-0.462 -0.8,-0.092 -0.9,-0.462 0.8,-0.277 1.6,0.093 2,0.462 l 1,0.093 c 0.8,-0.555 1.7,-0.555 2.7,-0.277 1.71,0.461 3.51,0.092 5.21,0.277 l 1,0.092 c 0.6,0.37 1.1,0.555 1.9,0.277 0.1,-0.092 1,-0.184 0.7,0.462 l 0.3,0.185 c 0.9,-0.277 1.8,0.185 2.6,-0.185 0,1.017 0,1.017 2.21,0.37 l -0.5,1.109 c 1.3,0.184 1.8,-0.555 2.6,-1.109 0.9,-0.647 2,-1.386 3.5,-0.924 l 0.7,0.092 c 1.2,-1.016 2.9,-0.739 4.4,-1.201 0.6,-0.185 1.1,0.093 1.71,0.093 1.1,-0.093 2.1,0.092 3,-0.647 0.4,-0.277 1.3,-0.832 1.6,0.185 l 0.6,0.184 c 1,0.093 1.9,-0.092 2.9,0.093 l 0.9,-0.462 c 0.5,-0.462 0.8,-1.016 1.9,-0.37 0.5,0.37 1.1,0.093 1.4,-0.462 h 0.21 c 0.1,0.278 0.5,0.185 0.9,0 12.01,0 25.52,0 40.33,-0.092 1.1,0.37 2.6,0 3.4,1.109 0.3,0.369 1.1,0.462 1.7,0.554 2.2,0.185 4.4,0.092 6.61,0.554 0.7,0.093 1.3,-0.369 1.9,-0.184 1.3,0.461 2.6,0.369 3.9,0.554 0.7,0.092 1.4,0.185 2.2,0.092 1.9,-0.184 3.81,-0.092 5.81,-0.646 1,-0.278 2.3,-0.278 3.1,0.554 l 1,0.369 c 0,0.74 -1.3,0.37 -1.5,0.924 l 0.5,0.093 c 2.2,-1.386 4.5,-0.739 6.6,0.092 1.01,0.37 1.91,0.185 2.71,0.462 1.1,0.37 1.6,-0.185 2.4,-0.369 1.8,-0.37 3.8,-0.647 5.6,0.277 0.6,0.277 1,-0.185 1.6,-0.093 1.61,0.093 3.01,-0.277 4.41,-0.831 1.5,-0.554 3.2,-0.739 4.8,-0.647 1.4,0.092 2.8,-0.092 3.9,-0.462 1.71,-0.647 3.21,-0.277 4.71,0.277 1.3,0.462 2.9,0.278 4.2,1.017 0.1,0.092 1.5,0.462 1.1,-0.647 l 0.8,-0.37 c 1.1,1.017 2.61,0.462 3.81,0.37 1.8,-0.185 3.6,-0.093 5.3,-0.185 2.3,-0.185 4.6,-0.369 7.01,-0.462 0.9,0 1.8,0 2.7,0.092 2,0.37 4,-0.092 6,-0.092 3.41,0 6.81,-0.092 10.21,-0.092 l 1.1,-0.37 c 0.4,-0.277 0.9,-0.647 1.4,0 l 0.8,-0.185 0.9,-0.554 c 0.6,-0.092 0.9,0.924 1.91,0.185 0.4,-0.277 1.6,-0.092 2.4,-0.185 0.8,-0.092 1.7,0.277 2.4,0.185 1.6,-0.277 3.3,-0.093 4.9,-0.37 0.5,-0.092 1,-0.369 1.3,0.185 l 1,0.092 c 1.41,-0.461 2.61,0.093 3.91,0.093 2.2,0 4.5,0 6.7,0 h 0.5 c 0.7,0.924 2,0.554 2.91,0.831 1.9,0.647 3.9,0.832 5.9,1.109 2.6,0.277 5.3,0.277 8.01,0.277 h 0.3 c 3.2,0.924 6.4,-0.092 9.5,-0.185 1.31,0 2.51,0.278 3.81,0.37 0.9,0.092 1.7,0.185 2.5,-0.092 0.6,-0.278 1.2,-0.37 1.7,-0.185 2.6,0.554 5.3,0.277 7.91,0.277 1.8,0 3.5,0.554 5.3,0.647 1.4,0.092 2.9,0.369 4.4,0.462 1.41,0.185 2.71,0.831 4.11,1.016 1.1,0.185 2.3,0.277 3.3,0.739 l 1.4,0.093 c 2,-0.462 4.1,-0.37 6.01,0 2.8,0.554 5.6,0.369 8.3,0.461 1.5,0.093 3.1,0.278 4.41,-0.646 0.2,0.277 0.1,0.924 0.8,0.646 0.6,-0.184 1.7,0.462 1.7,-0.554 l 0.7,-0.369 c 1.8,0.184 3.6,-0.278 5.3,-0.37 1.9,-0.092 3.71,0.277 5.61,0.185 1.2,0 2.4,0.092 3.5,-0.37 0.7,-0.277 1.1,0.185 1.7,0.185 2.5,-0.092 5.1,0 7.61,-0.185 2,-0.092 3.8,-0.831 5.4,-1.57 0.6,-0.278 1.3,-0.278 2,-0.37 2.3,-0.37 4.61,-0.924 6.91,-0.277 l 1,-0.185 1.1,-0.185 c 0.2,0.093 0.4,0.093 0.6,0.185 V 297.683 Z"
       fill="#f3ebdb"
       id="path1"
       clip-path="url(#clipPath367)"
       transform="translate(0.27842228,-857.5406)" />
  </g>
</svg>
